<svg width="348" height="279" viewBox="0 0 348 279" fill="none" xmlns="http://www.w3.org/2000/svg">
<path d="M0 8.01582C0 1.23882 7.898 -2.46818 13.111 1.86082L151 116.373C164.334 127.446 183.666 127.446 197 116.373L334.889 1.86082C340.102 -2.46818 348 1.23882 348 8.01582V242.973C348 262.855 331.882 278.973 312 278.973H36C16.118 278.973 0 262.855 0 242.973V8.01582Z" fill="#6D4AFF"/>
<path fill-rule="evenodd" clip-rule="evenodd" d="M220.981 96.4568L221 96.4728L151.558 157.814C139.728 168.263 122.046 168.527 109.911 158.434L0 67.0258V8.01582C0 1.23882 7.898 -2.46818 13.111 1.86082L151 116.373C164.334 127.446 183.666 127.446 197 116.373L220.981 96.4568Z" fill="url(#paint0_linear_0_1)"/>
<path fill-rule="evenodd" clip-rule="evenodd" d="M274 52.4278V278.973H312C331.882 278.973 348 262.854 348 242.973V8.01579C348 1.23879 340.102 -2.46921 334.889 1.86179L274 52.4278Z" fill="url(#paint1_linear_0_1)"/>
<defs>
<linearGradient id="paint0_linear_0_1" x1="262.5" y1="136.473" x2="183.177" y2="-202.168" gradientUnits="userSpaceOnUse">
<stop stop-color="#E2DBFF"/>
<stop offset="1" stop-color="#6D4AFF"/>
</linearGradient>
<linearGradient id="paint1_linear_0_1" x1="454" y1="462.473" x2="183.302" y2="-115.796" gradientUnits="userSpaceOnUse">
<stop offset="0.271019" stop-color="#E2DBFF"/>
<stop offset="1" stop-color="#6D4AFF"/>
</linearGradient>
</defs>
</svg>
